<?xml version="1.0" encoding="UTF-8" standalone="no"?>
<svg width="34px" height="24px" viewBox="0 0 34 24" version="1.1" xmlns="http://www.w3.org/2000/svg" xmlns:xlink="http://www.w3.org/1999/xlink">
    <!-- Generator: Sketch 41.2 (35397) - http://www.bohemiancoding.com/sketch -->
    <title>tt-notehead-open</title>
    <desc>Created with Sketch.</desc>
    <defs></defs>
    <g fill-rule="evenodd">
        <g transform="translate(-243.000000, -68.000000)">
            <g transform="translate(243.000000, 68.000000)">
                <path d="M2.71213565,20.9591261 C2.76194104,20.999665 2.81965566,21.036436 2.8851611,21.0684257 C2.8851611,21.0684257 11.2951281,26.2617267 24.0668236,20.2522289 C36.8385191,14.2427312 32.2361738,4.05179503 32.2361738,4.05179503 C32.0926517,3.64700017 31.7065189,3.24206711 31.2878644,3.04087389 C31.238059,3.00033501 31.1803443,2.96356405 31.1148389,2.93157429 C31.1148389,2.93157429 22.7048719,-2.26172669 9.93317642,3.74777107 C-2.83851909,9.75726883 1.76382625,19.948205 1.76382625,19.948205 C1.90734833,20.3529998 2.29348106,20.7579329 2.71213565,20.9591261 Z M24.4918143,5.68038907 C24.420693,5.87599153 24.3731133,6.07072394 24.3576061,6.24659503 C24.3576061,6.24659503 24.0668236,14.8547255 18.9446536,18.0697986 C13.8224835,21.2848716 10.0770592,18.5515741 10.0770592,18.5515741 C9.91858772,18.4628755 9.72138081,18.3835555 9.50818574,18.3196109 C9.57930704,18.1240085 9.62688673,17.9292761 9.64239385,17.753405 C9.64239385,17.753405 9.93317642,9.14527449 15.0553464,5.93020143 C20.1775165,2.71512837 23.9229408,5.44842593 23.9229408,5.44842593 C24.0814123,5.53712446 24.2786192,5.61644452 24.4918143,5.68038907 Z" id="Combined-Shape"></path>
            </g>
        </g>
    </g>
</svg>
