<?xml version="1.0" encoding="UTF-8" standalone="no"?>
<svg width="22px" height="66px" viewBox="0 0 22 66" version="1.1" xmlns="http://www.w3.org/2000/svg" xmlns:xlink="http://www.w3.org/1999/xlink">
    <!-- Generator: Sketch 41.2 (35397) - http://www.bohemiancoding.com/sketch -->
    <title>tt-flat</title>
    <desc>Created with Sketch.</desc>
    <defs></defs>
    <g id="Symbols" stroke="none" stroke-width="1" fill-rule="evenodd">
        <g id="tt-flat">
            <path d="M2,36.5687811 C4.78937805,33.7990279 10.9720324,28.2303168 14.8590846,29.0396951 C20.0030687,30.110797 22.3058562,42.9049537 15.581703,52.6175962 C8.85754982,62.3302387 2.75799213,66.6556556 0.962547986,65.1504494 C0.496069221,64.7593781 0.244193618,62.7433422 0.126896515,59.9731123 L0.0811176069,59.8746946 L0.0793063352,58.537755 C0.0281240393,56.4900518 0.0336039016,54.1574921 0.0702025092,51.8180208 L0.00135704151,1.00166227 C0.00060756818,0.448459472 0.443864822,0 1,0 C1.55228475,0 2,0.442862511 2,1.00528717 L2,36.5687811 Z M2,58.399844 C3.86559454,57.4078985 10.9004382,53.3979646 13.1956777,48.2029194 C15.8509638,42.1929447 15.3459298,38.4408774 11.7458321,37.3536321 C8.14573448,36.2663868 2.08447266,43.7382469 2.08447266,43.7382469 L2,46.0577928 L2,58.399844 Z" id="Combined-Shape"></path>
        </g>
    </g>
</svg>
