<?xml version="1.0" encoding="UTF-8" standalone="no"?>
<svg width="30px" height="80px" viewBox="0 0 30 80" version="1.1" xmlns="http://www.w3.org/2000/svg" xmlns:xlink="http://www.w3.org/1999/xlink">
    <!-- Generator: Sketch 41.2 (35397) - http://www.bohemiancoding.com/sketch -->
    <title>tt-quarter-rest</title>
    <desc>Created with Sketch.</desc>
    <defs></defs>
    <g id="Symbols" stroke="none" stroke-width="1"  fill-rule="evenodd">
        <g id="tt-quarter-rest" >
            <g id="Group">
                <path d="M14.432939,39.4230561 L19.1282278,44.824368 C19.4058907,45.071894 19.7609237,45.4941397 20.0506632,46.1855089 C20.6169502,47.5367692 20.284948,48.1222033 20.284948,48.1222033 C20.1766639,48.6611915 19.7022524,49.3220596 19.2375504,49.6040552 C19.2375504,49.6040552 11.8434485,53.6672709 11.8457491,57.9875122 C11.8480498,62.3077534 16.2719656,63.1400568 16.2719656,63.1400568 C16.7955779,63.2940692 17.5019957,63.7704248 17.8197209,64.2165451 C17.8197209,64.2165451 17.9171153,64.194006 18.6880549,65.6887784 C19.4589944,67.1835508 19.1211333,67.6291026 19.1211333,67.6291026 C19.0376906,68.1670496 18.5324965,68.4711532 18.0260636,68.2960305 C18.0260636,68.2960305 8.86754548,65.9796071 7.09681594,56.1191695 C6.35904444,52.0108346 7.93301127,49.2546955 10.0204267,47.4371617 L5.77536655,42.5537786 C5.67194395,42.4838937 5.58776761,42.3877181 5.52997317,42.2714858 L5.5233692,42.2638888 L5.5253971,42.262126 C5.46906559,42.1449262 5.43926141,42.0078701 5.443102,41.8571757 C5.443102,41.8571757 5.20354731,40.6998612 6.61254016,38.6830121 C8.02153301,36.666163 8.43127143,36.3893207 8.43127143,36.3893207 C8.81544205,35.9832162 9.56852035,35.6086367 10.1093385,35.5235162 C10.1093385,35.5235162 16.2782151,35.1028628 17.5208173,28.8448906 C18.7634196,22.5869183 10.3208141,15.0701389 10.3208141,15.0701389 C9.91693264,14.6806991 9.58989505,13.9343691 9.58688489,13.385278 C9.58688489,13.385278 9.36904376,12.0159407 10.4766875,10.1675617 C11.5843312,8.31918279 13.0327011,7.81500005 13.0327011,7.81500005 C13.5149028,7.5534134 14.3287127,7.54230565 14.8335182,7.76224148 C14.8335182,7.76224148 29.1746082,13.1102503 24.0941139,27.0532182 C21.7948125,33.3634478 17.9516202,37.1587651 14.432939,39.4230561 Z" id="quarter-rest"></path>
            </g>
        </g>
    </g>
</svg>
