<?xml version="1.0" encoding="UTF-8"?>
<svg width="34px" height="164px" viewBox="0 0 34 164" version="1.1" xmlns="http://www.w3.org/2000/svg" xmlns:xlink="http://www.w3.org/1999/xlink">
    <!-- Generator: Sketch 57.1 (83088) - https://sketch.com -->
    <title>tt-stem-down-1flag</title>
    <desc>Created with Sketch.</desc>
    <g id="tt-stem-down-1flag" stroke="none" stroke-width="1" fill-rule="evenodd">
        <path d="M3.13510232,85.2651132 C3.13510232,85.2651132 2.21537853,122.843597 2.67631772,138.795045 L2.46884363,138.851209 C11.3391229,136.310612 17.5223642,138.099893 21.6112422,130.180702 C25.7001203,122.26151 22.6945046,112.463465 22.6945046,112.463465 C22.5541091,111.931358 22.2325712,111.103019 21.9584453,110.622503 C21.9584453,110.622503 20.4817497,107.415735 16.3887561,104.371934 C15.0211855,100.65441 20.0661771,101.440132 21.6112422,103.657432 C23.1563074,105.874732 31.6868408,129.307801 21.6112422,140.632042 C13.8274004,149.380515 6.45585917,149.14287 3.50516168,148.582149 C3.46732519,148.805396 3.40707494,149.027273 3.32425358,149.265113 C2.83510232,150.669819 1.21621993,150.306781 1.13510232,149.265113 C1.11987621,149.069588 1.10802286,148.430024 1.09906071,147.427419 C1.00269305,147.289269 0.930997956,147.144075 0.892480833,146.999647 C0.892480833,146.999647 0.0397847871,145.491152 1.07858285,142.13563 C1.05577612,126.215131 1.21621993,89.3904185 1.21621993,89.3904185 L1.21621993,89.3904185 Z" id="Combined-Shape" ></path>
    </g>
</svg>
