<?xml version="1.0" encoding="UTF-8" standalone="no"?>
<svg width="22px" height="62px" viewBox="0 0 22 62" version="1.1" xmlns="http://www.w3.org/2000/svg" xmlns:xlink="http://www.w3.org/1999/xlink">
    <!-- Generator: Sketch 41.2 (35397) - http://www.bohemiancoding.com/sketch -->
    <title>tt-sharp</title>
    <desc>Created with Sketch.</desc>
    <defs></defs>
    <g id="Symbols" stroke="none" stroke-width="1" fill="none" fill-rule="evenodd">
        <g id="tt-sharp" fill="#000000">
            <path d="M14.0223597,42.0584831 C13.0660962,42.1542382 12.079806,42.2899937 11.0957022,42.5745764 C10.0974123,42.8632614 8.77698954,43.538048 7.39850526,44.2967614 L7.39850526,60.7662088 C7.39850526,61.2260571 7.03099326,61.5988377 6.57052345,61.5988377 C6.11324173,61.5988377 5.74254165,61.2227139 5.74254165,60.7662088 L5.74254165,45.2229973 C3.36323872,46.5609982 1.12301356,47.7916203 0.366817015,47.3758466 C-1.00372628,46.6222915 0.315423714,41.6736244 0.315423714,41.6736244 C0.549831555,40.6085018 1.30565486,39.3623682 2.01889049,38.9178675 C2.01889049,38.9178675 3.26849382,37.9671254 5.74254165,36.9134126 L5.74254165,24.5563306 C3.36323872,25.8943316 1.12301356,27.1249536 0.366817015,26.70918 C-1.00372628,25.9556248 0.315423714,21.0069577 0.315423714,21.0069577 C0.549831555,19.9418352 1.30565486,18.6957015 2.01889049,18.2512008 C2.01889049,18.2512008 3.26849382,17.3004587 5.74254165,16.2467459 L5.74254165,3.53146665 C5.74254165,3.0716184 6.11005364,2.69883774 6.57052345,2.69883774 C7.02780518,2.69883774 7.39850526,3.07496155 7.39850526,3.53146665 L7.39850526,15.6000738 C8.7774507,15.107577 10.4193134,14.6299467 12.3215744,14.2520654 C12.796649,14.1576926 13.3812646,14.0643349 14.0223597,13.9798799 L14.0223597,0.431466654 C14.0223597,-0.0283815996 14.3898717,-0.401162264 14.8503415,-0.401162264 C15.3076232,-0.401162264 15.6783233,-0.025038454 15.6783233,0.431466654 L15.6783233,13.7949652 C18.0727246,13.5732294 20.6214826,13.532122 21.1824034,13.9900744 C22.0404574,14.6906153 21.9073985,18.4018981 19.7702711,20.0280834 C18.6602593,20.8727148 17.2417472,21.0930086 15.6783233,21.2416233 L15.6783233,34.4616319 C18.0727246,34.2398961 20.6214826,34.1987886 21.1824034,34.6567411 C22.0404574,35.357282 21.9073985,39.0685647 19.7702711,40.6947501 C18.6602593,41.5393815 17.2417472,41.7596753 15.6783233,41.9082899 L15.6783233,57.6662088 C15.6783233,58.1260571 15.3108113,58.4988377 14.8503415,58.4988377 C14.3930598,58.4988377 14.0223597,58.1227139 14.0223597,57.6662088 L14.0223597,42.0584831 Z M14.0223597,34.6465466 C13.3812646,34.7310016 12.796649,34.8243592 12.3215744,34.9187321 C10.4193134,35.2966134 8.7774507,35.7742437 7.39850526,36.2667405 L7.39850526,23.6300947 C8.77698954,22.8713813 10.0974123,22.1965947 11.0957022,21.9079097 C12.079806,21.6233271 13.0660962,21.4875715 14.0223597,21.3918164 L14.0223597,34.6465466 Z" id="Combined-Shape"></path>
        </g>
    </g>
</svg>