<?xml version="1.0" encoding="UTF-8"?>
<svg width="64px" height="60px" viewBox="0 0 64 60" version="1.1" xmlns="http://www.w3.org/2000/svg" xmlns:xlink="http://www.w3.org/1999/xlink">
    <!-- Generator: Sketch 57.1 (83088) - https://sketch.com -->
    <title>tt-subdivide-4</title>
    <desc>Created with Sketch.</desc>
    <g id="tt-subdivide-4" stroke="none" stroke-width="1"  fill-rule="evenodd">
        <g>
            <path d="M50.2498084,29.0962353 L39.5950931,48.5002853 C38.4930225,47.7057654 37.2975693,47.0441276 36.0296052,46.5373268 L43.3822144,25.5337422 C45.796223,26.4822054 48.0948286,27.6795992 50.2498084,29.0962353 Z M16.6421278,25.5136208 L23.9939516,46.5172234 C22.7174604,47.0225237 21.5139564,47.6845706 20.4046387,48.4810647 L9.75019161,29.0785135 C11.9126485,27.6595874 14.2194507,26.4613071 16.6421278,25.5136208 Z M31.7062862,23.0399028 C34.6657566,23.1775108 37.537919,23.6685156 40.2855671,24.4737794 L34.6232656,46.0483148 C33.402745,45.6855521 32.126512,45.4624393 30.8111493,45.3964203 L31.7062862,23.0399028 Z M28.3245216,23.0372611 L29.2194197,45.3936331 C27.9029851,45.4550651 26.6254345,45.6738294 25.4033482,46.032485 L19.7402141,24.4583586 C22.4897529,23.6570315 25.3635948,23.1702822 28.3245216,23.0372611 Z"></path>
            <path d="M29.9478667,5.0657558 C40.5318539,5.0657558 50.4957668,7.85843514 59.2099984,12.7815008 L51.9939211,25.9204234 C45.3894285,22.3751384 37.9099338,20.3757708 29.9865084,20.3757708 C22.0746727,20.3757708 14.6054701,22.3692936 8.00808297,25.904876 L0.773672875,12.7319169 C9.46697385,7.83968793 19.3994645,5.0657558 29.9478667,5.0657558 Z M12.656,10.504 L11.348,10.504 L8.78,12.64 L9.62,13.636 L11.216,12.16 L11.216,19 L12.656,19 L12.656,10.504 Z M35.9786667,11.5 L34.7546667,11.5 L34.7546667,14.14 L32.1146667,14.14 L32.1146667,15.364 L34.7546667,15.364 L34.7546667,18.004 L35.9786667,18.004 L35.9786667,15.364 L38.6186667,15.364 L38.6186667,14.14 L35.9786667,14.14 L35.9786667,11.5 Z M48.252,11.728 C47.7959977,11.728 47.3540021,11.7999993 46.926,11.944 C46.4979979,12.0880007 46.1240016,12.3239984 45.804,12.652 L45.804,12.652 L46.56,13.408 C46.752001,13.2239991 46.9799987,13.0780005 47.244,12.97 C47.5080013,12.8619995 47.7919985,12.808 48.096,12.808 C48.4800019,12.808 48.7959988,12.8979991 49.044,13.078 C49.2920012,13.2580009 49.416,13.5279982 49.416,13.888 L49.416,13.888 L49.416,14.044 L49.056,14.044 C48.8159988,14.044 48.5600014,14.0499999 48.288,14.062 C48.0159986,14.0740001 47.7460013,14.1019998 47.478,14.146 C47.2099987,14.1900002 46.9520012,14.2559996 46.704,14.344 C46.4559988,14.4320004 46.2380009,14.5499993 46.05,14.698 C45.8619991,14.8460007 45.7120006,15.0299989 45.6,15.25 C45.4879994,15.4700011 45.432,15.7359984 45.432,16.048 C45.432,16.3360014 45.4919994,16.5879989 45.612,16.804 C45.7320006,17.0200011 45.889999,17.1999993 46.086,17.344 C46.282001,17.4880007 46.5059987,17.5959996 46.758,17.668 C47.0100013,17.7400004 47.2679987,17.776 47.532,17.776 C47.9160019,17.776 48.2679984,17.7020007 48.588,17.554 C48.9080016,17.4059993 49.171999,17.1680016 49.38,16.84 L49.38,16.84 L49.416,16.84 L49.416,17.632 L50.712,17.632 L50.712,14.32 C50.712,14.1839993 50.708,14.0260009 50.7,13.846 C50.692,13.6659991 50.6660002,13.480001 50.622,13.288 C50.5779998,13.095999 50.5060005,12.9060009 50.406,12.718 C50.3059995,12.5299991 50.1640009,12.3640007 49.98,12.22 C49.7959991,12.0759993 49.5640014,11.9580005 49.284,11.866 C49.0039986,11.7739995 48.660002,11.728 48.252,11.728 Z M22.6013333,11.728 C22.1693312,11.728 21.7613353,11.7999993 21.3773333,11.944 C20.9933314,12.0880007 20.6613347,12.2919987 20.3813333,12.556 C20.1013319,12.8200013 19.8793342,13.1379981 19.7153333,13.51 C19.5513325,13.8820019 19.4693333,14.2959977 19.4693333,14.752 C19.4693333,15.2080023 19.5513325,15.6219981 19.7153333,15.994 C19.8793342,16.3660019 20.1013319,16.6839987 20.3813333,16.948 C20.6613347,17.2120013 20.9933314,17.4159993 21.3773333,17.56 C21.7613353,17.7040007 22.1693312,17.776 22.6013333,17.776 C23.0573356,17.776 23.4933313,17.6880009 23.9093333,17.512 C24.3253354,17.3359991 24.7013317,17.0400021 25.0373333,16.624 L25.0373333,16.624 L24.0053333,15.844 C23.8213324,16.0680011 23.6073346,16.2539993 23.3633333,16.402 C23.1193321,16.5500007 22.8173351,16.624 22.4573333,16.624 C22.0493313,16.624 21.7013348,16.5040012 21.4133333,16.264 C21.1253319,16.0239988 20.9573336,15.6880022 20.9093333,15.256 L20.9093333,15.256 L25.3013333,15.256 L25.3013333,14.86 C25.3013333,14.3559975 25.235334,13.9100019 25.1033333,13.522 C24.9713327,13.1339981 24.7873345,12.8080013 24.5513333,12.544 C24.3153322,12.2799987 24.031335,12.0780007 23.6993333,11.938 C23.3673317,11.7979993 23.0013353,11.728 22.6013333,11.728 Z M49.332,15.052 L49.332,15.376 C49.332,15.784002 49.2140012,16.1059988 48.978,16.342 C48.7419988,16.5780012 48.3760025,16.696 47.88,16.696 C47.7599994,16.696 47.6400006,16.6820001 47.52,16.654 C47.3999994,16.6259999 47.2920005,16.5800003 47.196,16.516 C47.0999995,16.4519997 47.0220003,16.3740005 46.962,16.282 C46.9019997,16.1899995 46.872,16.0760007 46.872,15.94 C46.872,15.731999 46.9479992,15.5700006 47.1,15.454 C47.2520008,15.3379994 47.4379989,15.2500003 47.658,15.19 C47.8780011,15.1299997 48.1119988,15.0920001 48.36,15.076 C48.6080012,15.0599999 48.831999,15.052 49.032,15.052 L49.032,15.052 L49.332,15.052 Z M22.3973333,12.808 C22.8533356,12.808 23.2093321,12.9299988 23.4653333,13.174 C23.7213346,13.4180012 23.8533333,13.7519979 23.8613333,14.176 L23.8613333,14.176 L20.9093333,14.176 C20.9653336,13.7599979 21.1193321,13.4280012 21.3713333,13.18 C21.6233346,12.9319988 21.9653312,12.808 22.3973333,12.808 Z" ></path>
            <path d="M50.7498084,20 C52.682805,20 54.2498084,21.5670034 54.2498084,23.5 C54.2498084,24.9976978 53.3090976,26.2756808 51.9863083,26.7753168 L51.9865084,59.5 L49.9865084,59.5 L49.9858839,26.9163852 C48.4202723,26.567844 47.2498084,25.1706102 47.2498084,23.5 C47.2498084,21.5670034 48.8168118,20 50.7498084,20 Z" transform="translate(50.749808, 39.750000) rotate(30.000000) translate(-50.749808, -39.750000) "></path>
        </g>
    </g>
</svg>
