<?xml version="1.0" encoding="UTF-8"?>
<svg width="64px" height="60px" viewBox="0 0 64 60" version="1.1" xmlns="http://www.w3.org/2000/svg" xmlns:xlink="http://www.w3.org/1999/xlink">
    <!-- Generator: Sketch 57.1 (83088) - https://sketch.com -->
    <title>tt-subdivide-2</title>
    <desc>Created with Sketch.</desc>
    <g id="tt-subdivide-2" stroke="none" stroke-width="1" fill-rule="evenodd">
        <g>
            <path d="M50.2498084,29.0962353 L39.5950931,48.5002853 C37.0728402,46.6819082 34.061458,45.5595558 30.8111493,45.3964203 L31.7062862,23.0399028 C38.4969646,23.3556525 44.8279663,25.5320359 50.2498084,29.0962353 Z M28.3245216,23.0372611 L29.2194197,45.3936331 C25.9585857,45.5458014 22.9363297,46.6633015 20.4046387,48.4810647 L9.75019161,29.0785135 C15.1814373,25.5147263 21.5232383,23.342812 28.3245216,23.0372611 Z"></path>
            <path d="M29.9478667,5.0657558 C40.5318539,5.0657558 50.4957668,7.85843514 59.2099984,12.7815008 L51.9939211,25.9204234 C45.3894285,22.3751384 37.9099338,20.3757708 29.9865084,20.3757708 C22.0746727,20.3757708 14.6054701,22.3692936 8.00808297,25.904876 L0.773672875,12.7319169 C9.46697385,7.83968793 19.3994645,5.0657558 29.9478667,5.0657558 Z M18.656,9.504 L17.348,9.504 L14.78,11.64 L15.62,12.636 L17.216,11.16 L17.216,18 L18.656,18 L18.656,9.504 Z M43.608,11.112 L42.384,11.112 L42.384,13.752 L39.744,13.752 L39.744,14.976 L42.384,14.976 L42.384,17.616 L43.608,17.616 L43.608,14.976 L46.248,14.976 L46.248,13.752 L43.608,13.752 L43.608,11.112 Z"></path>
            <path d="M50.7498084,20 C52.682805,20 54.2498084,21.5670034 54.2498084,23.5 C54.2498084,24.9976978 53.3090976,26.2756808 51.9863083,26.7753168 L51.9865084,59.5 L49.9865084,59.5 L49.9858839,26.9163852 C48.4202723,26.567844 47.2498084,25.1706102 47.2498084,23.5 C47.2498084,21.5670034 48.8168118,20 50.7498084,20 Z" transform="translate(50.749808, 39.750000) rotate(30.000000) translate(-50.749808, -39.750000) "></path>
        </g>
    </g>
</svg>
