<?xml version="1.0" encoding="UTF-8"?>
<svg width="64px" height="60px" viewBox="0 0 64 60" version="1.1" xmlns="http://www.w3.org/2000/svg" xmlns:xlink="http://www.w3.org/1999/xlink">
    <!-- Generator: Sketch 57.1 (83088) - https://sketch.com -->
    <title>tt-subdivide-1</title>
    <desc>Created with Sketch.</desc>
    <g id="tt-subdivide-1" stroke="none" stroke-width="1" fill-rule="evenodd">
        <g>
            <path d="M29.9865084,23 C37.4275245,23 44.3727783,25.2328053 50.2498084,29.0962353 L39.5950931,48.5002853 C36.8608038,46.529044 33.5516899,45.3757708 29.9865084,45.3757708 C26.4329299,45.3757708 23.1337551,46.5215494 20.4046387,48.4810647 L9.75019161,29.0785135 C15.6214922,25.2259781 22.5568771,23 29.9865084,23 Z"></path>
            <path d="M29.9478667,5.0657558 C40.5318539,5.0657558 50.4957668,7.85843514 59.2099984,12.7815008 L51.9939211,25.9204234 C45.3894285,22.3751384 37.9099338,20.3757708 29.9865084,20.3757708 C22.0746727,20.3757708 14.6054701,22.3692936 8.00808297,25.904876 L0.773672875,12.7319169 C9.46697385,7.83968793 19.3994645,5.0657558 29.9478667,5.0657558 Z M30.656,9.504 L29.348,9.504 L26.78,11.64 L27.62,12.636 L29.216,11.16 L29.216,18 L30.656,18 L30.656,9.504 Z"></path>
            <path d="M50.7498084,20 C52.682805,20 54.2498084,21.5670034 54.2498084,23.5 C54.2498084,24.9976978 53.3090976,26.2756808 51.9863083,26.7753168 L51.9865084,59.5 L49.9865084,59.5 L49.9858839,26.9163852 C48.4202723,26.567844 47.2498084,25.1706102 47.2498084,23.5 C47.2498084,21.5670034 48.8168118,20 50.7498084,20 Z"
transform="translate(50.749808, 39.750000) rotate(30.000000) translate(-50.749808, -39.750000) "></path>
        </g>
    </g>
</svg>
