<?xml version="1.0" encoding="UTF-8"?>
<svg width="22px" height="24px" viewBox="0 0 22 24" version="1.1" xmlns="http://www.w3.org/2000/svg" xmlns:xlink="http://www.w3.org/1999/xlink">
    <!-- Generator: Sketch 57.1 (83088) - https://sketch.com -->
    <title>tt-double-sharp</title>
    <desc>Created with Sketch.</desc>
    <g id="tt-double-sharp" stroke="none" stroke-width="1" fill="none" fill-rule="evenodd">
        <path d="M20.7127358,2.70962877 C21.318402,3.51666929 20.7127358,6.46145245 20.7127358,6.46145245 C20.6576061,7.51403865 20.3910358,8.72596042 20.1098008,9.14025265 L20.0741122,9.20278851 C19.8840973,9.52674962 18.9333886,11.0401546 17.1757785,12.1071849 C18.8872423,13.1693954 19.8147495,14.6442734 20.0035626,14.9659563 L20.0398531,15.0295176 C20.3210881,15.4438099 20.5876584,16.6557316 20.6427881,17.7083178 C20.6427881,17.7083178 21.2484543,20.653101 20.6427881,21.4601415 C20.0371218,22.267182 15.3285543,22.2314554 14.0588763,21.4601415 C12.7305603,20.6532057 11.7832676,20.6532057 11.419777,17.3026329 C11.3649981,16.7976934 11.3003864,16.3289048 11.2314793,15.8943286 C11.1617384,16.3285232 11.0970964,16.7974879 11.0422952,17.3026329 C10.6788046,20.6532057 9.73151195,20.6532057 8.4031959,21.4601415 C7.13351788,22.2314554 2.42495044,22.267182 1.81928417,21.4601415 C1.21361789,20.653101 1.81928417,17.7083178 1.81928417,17.7083178 C1.87441382,16.6557316 2.14098413,15.4438099 2.42221914,15.0295176 C2.42221914,15.0295176 3.35521573,13.3059888 5.28469765,12.1065384 C3.30813873,10.9060307 2.35227142,9.14025265 2.35227142,9.14025265 C2.07103642,8.72596042 1.8044661,7.51403865 1.74933645,6.46145245 C1.74933645,6.46145245 1.14367018,3.51666929 1.74933645,2.70962877 C2.35500272,1.90258825 7.06357016,1.93831488 8.33324819,2.70962877 C9.66156424,3.51656454 10.6088569,3.51656454 10.9723475,6.86713741 C11.0454488,7.54096856 11.1360607,8.1504211 11.2310236,8.70010141 C11.3260535,8.15013895 11.4166403,7.54081259 11.4897247,6.86713741 C11.8532153,3.51656454 12.800508,3.51656454 14.128824,2.70962877 C15.3985021,1.93831488 20.1070695,1.90258825 20.7127358,2.70962877 Z" id="Combined-Shape" fill="#000000"></path>
    </g>
</svg>