<?xml version="1.0" encoding="UTF-8"?>
<svg width="28px" height="90px" viewBox="0 0 28 90" version="1.1" xmlns="http://www.w3.org/2000/svg" xmlns:xlink="http://www.w3.org/1999/xlink">
    <!-- Generator: Sketch 57.1 (83088) - https://sketch.com -->
    <title>tt-double-flat</title>
    <desc>Created with Sketch.</desc>
    <g id="tt-double-flat" stroke="none" stroke-width="1" fill="none" fill-rule="evenodd">
        <path d="M14.6842656,1 C15.0619552,1 15.3681331,1.31416607 15.3681331,1.67544651 L15.3671639,41.2179404 C17.2742655,38.9407457 21.5033638,34.3598884 24.1620426,35.025559 C27.679846,35.9063342 29.2546474,46.4270656 24.6562178,54.4138446 C20.7229845,61.2452782 17.1022519,64.8357061 15.3686679,64.956964 L15.3681331,65 L15.3544089,64.9578856 C15.0677178,64.9748849 14.8333821,64.8958413 14.6586534,64.7197042 C14.3677345,64.4264405 14.1988675,63.0219204 14.1105473,61.0491968 L14.0558719,60.8746946 L14.0535631,59.2298889 C14.0196526,57.5557735 14.0236504,55.6537482 14.0485354,53.7465194 L14.0010403,1.69312701 C14.0007152,1.34222382 14.2555084,1.05222392 14.5909216,1.00632743 L14.6842656,1 Z M15.4259012,47.2717796 L15.36804,49.144 L15.3674005,59.2667671 C16.6421096,58.4560559 21.4545525,55.1751223 23.0244928,50.9242882 C24.8403565,46.0075816 24.4949802,42.9380489 22.0329906,42.0485833 C19.5710009,41.1591176 15.4259012,47.2717796 15.4259012,47.2717796 Z" id="Combined-Shape" fill="#000000"></path>
        <path d="M1.68426563,1 C2.0619552,1 2.36813309,1.31416607 2.36813309,1.67544651 L2.36716389,41.2179404 C4.27426547,38.9407457 8.50336382,34.3598884 11.1620426,35.025559 C14.679846,35.9063342 16.2546474,46.4270656 11.6562178,54.4138446 C7.72298448,61.2452782 4.10225193,64.8357061 2.36866788,64.956964 L2.36813309,65 L2.35440891,64.9578856 C2.06771779,64.9748849 1.83338215,64.8958413 1.65865341,64.7197042 C1.36773455,64.4264405 1.19886748,63.0219204 1.11054726,61.0491968 L1.05587186,60.8746946 L1.0535631,59.2298889 C1.01965256,57.5557735 1.02365041,55.6537482 1.04853543,53.7465194 L1.00104035,1.69312701 C1.00071524,1.34222382 1.25550843,1.05222392 1.59092158,1.00632743 L1.68426563,1 Z M2.42590119,47.2717796 L2.36804004,49.144 L2.36740046,59.2667671 C3.64210965,58.4560559 8.45455254,55.1751223 10.0244928,50.9242882 C11.8403565,46.0075816 11.4949802,42.9380489 9.03299055,42.0485833 C6.57100091,41.1591176 2.42590119,47.2717796 2.42590119,47.2717796 Z" id="Combined-Shape" fill="#000000"></path>
    </g>
</svg>