<?xml version="1.0" encoding="UTF-8"?>
<svg width="22px" height="92px" viewBox="0 0 22 92" version="1.1" xmlns="http://www.w3.org/2000/svg" xmlns:xlink="http://www.w3.org/1999/xlink">
    <!-- Generator: Sketch 57.1 (83088) - https://sketch.com -->
    <title>tt-flat</title>
    <desc>Created with Sketch.</desc>
    <g id="tt-flat" stroke="none" stroke-width="1" fill="none" fill-rule="evenodd">
        <path d="M1,2 C1.55228475,2 2,2.44286251 2,3.00528717 L1.99923695,38.5695388 C4.78825038,35.8000436 10.9716779,30.230243 14.8590846,31.0396951 C20.0030687,32.110797 22.3058562,44.9049537 15.581703,54.6175962 C8.85754982,64.3302387 2.75799213,68.6556556 0.962547986,67.1504494 C0.49612684,66.7594264 0.244255844,64.7438403 0.126939986,61.9741388 L0.0811176069,61.8746946 L0.078703139,60.5135032 C0.0281418065,58.4705959 0.033754055,56.1458742 0.0702587138,53.8144296 L0.00135704151,3.00166227 C0.000661101989,2.48797396 0.382807698,2.06460004 0.882676573,2.00673891 L1,2 Z M2.08447266,45.7382469 L1.99935609,48.07 L1.99864983,60.4005618 C3.8621978,59.4098344 10.8998841,55.3992187 13.1956777,50.2029194 C15.8509638,44.1929447 15.3459298,40.4408774 11.7458321,39.3536321 C8.14573448,38.2663868 2.08447266,45.7382469 2.08447266,45.7382469 Z" id="Combined-Shape" fill="#000000"></path>
    </g>
</svg>