<?xml version="1.0" encoding="UTF-8"?>
<svg width="22px" height="62px" viewBox="0 0 22 62" version="1.1" xmlns="http://www.w3.org/2000/svg" xmlns:xlink="http://www.w3.org/1999/xlink">
    <!-- Generator: Sketch 57.1 (83088) - https://sketch.com -->
    <title>tt-natural</title>
    <desc>Created with Sketch.</desc>
    <g id="tt-natural" stroke="none" stroke-width="1" fill="none" fill-rule="evenodd">
        <path d="M5.52792348,3.55271368e-15 C5.96167789,3.55271368e-15 6.31330532,0.348160647 6.31330532,0.787655062 L6.31306739,20.4132751 C7.33280827,19.7085925 8.87859646,18.8474086 10.9412783,18.2667949 C12.4179906,17.8511228 15.6815341,17.4589164 16.1897822,18.0468989 C16.4571735,18.3562387 16.5620746,19.3650134 16.4171148,20.4504053 C16.4590886,20.5432477 16.4825035,20.6470826 16.4825035,20.7570331 L16.4826832,34.4419362 C16.8759648,34.4815887 17.1697473,34.5672141 17.2947957,34.7135656 C17.7950694,35.2990654 17.7199316,38.3902657 16.4837726,39.7640436 L16.4825035,59.7137637 C16.4825035,60.0864916 16.2102088,60.3945283 15.8520886,60.4432793 L15.7524316,60.4500003 C15.349224,60.4500003 15.0223597,60.1245677 15.0223597,59.7137637 L15.0237952,40.6200988 C13.9415919,40.9135301 12.662161,40.8314283 11.3889802,41.3592142 C9.56631415,42.1147844 5.90962286,46.021526 5.10716271,45.3890473 C4.70376251,45.0710975 4.69834001,43.8633327 4.7927089,42.7407302 C4.75981657,42.6554459 4.74254165,42.5625192 4.74254165,42.4651055 L4.74200051,28.5746826 C4.34528257,28.7839013 4.03542565,28.8589308 3.86015858,28.7223806 C3.04834945,28.0899019 3.82971697,23.9363547 3.82971697,23.9363547 C3.95809946,23.1097403 4.3505343,22.1532342 4.74292651,21.7188321 L4.74254165,0.787655062 C4.74254165,0.388896006 5.03546531,0.0593461743 5.42071656,0.00719036233 L5.52792348,3.55271368e-15 Z M10.2151617,24.6925475 C9.20985005,25.1044913 7.65301737,26.4531305 6.31331835,27.4921209 L6.31258708,38.0552605 C6.95575228,37.454918 8.89888059,35.8469437 12.1067347,34.9334616 C12.8280905,34.7280452 13.9807876,34.5283595 15.0229739,34.4498663 L15.0233267,23.4173015 C13.7638455,24.3929353 11.9835442,23.9679223 10.2151617,24.6925475 Z" id="Combined-Shape" fill="#000000"></path>
    </g>
</svg>