<?xml version="1.0" encoding="UTF-8"?>
<svg width="40px" height="80px" viewBox="0 0 40 80" version="1.1" xmlns="http://www.w3.org/2000/svg" xmlns:xlink="http://www.w3.org/1999/xlink">
    <!-- Generator: Sketch 57.1 (83088) - https://sketch.com -->
    <title>tt-rest-eighth</title>
    <desc>Created with Sketch.</desc>
    <g id="tt-rest-eighth" stroke="none" stroke-width="1"  fill-rule="evenodd">
        <g id="Group"></g>
        <path d="M29.543159,26.355156 C29.543159,26.355156 30.6107988,25.8481755 32.6266254,26.1107881 C34.6424519,26.3734008 35.4549685,27.1672258 35.4549685,27.1672258 C35.9139075,27.4660916 36.2381701,28.1813167 36.1949908,28.7326953 C36.1949908,30.3400286 34.8454981,34.5217159 30,36.9764472 C28.132787,38.3537546 24.4824372,40.6464201 21.4411116,44.0765128 C16.9399715,49.1530256 19.3047464,54.5722736 19.3047464,54.5722736 C19.4758229,55.087985 19.6876044,55.9398323 19.7600323,56.4973452 C19.7600323,56.4973452 19.8889978,56.8243018 19.9147849,59.1303325 C19.940572,61.4363633 19.3226805,62.2290726 19.3226805,62.2290726 C19.0851513,62.722922 18.6461147,62.7437915 18.3574629,62.2809518 C18.3574629,62.2809518 9.83946035,49.7184371 15,42.674081 C16.4159497,40.7412494 18.2599846,39.2878687 20.1905894,38.1963475 C7.51454385,37.7482948 2.46021928,30.3400286 2.46021928,30.3400286 C2.11234887,29.9250309 2.26450629,29.4438723 2.79209959,29.2957078 C2.79209959,29.2957078 3.68006157,28.8248559 5.94658067,29.2506893 C8.21309976,29.6765227 8.51269444,29.8603043 8.51269444,29.8603043 C9.04916052,30.028443 9.72798145,30.5295499 10.0540409,30.9659787 C10.0540409,30.9659787 12.363924,34.9863716 18.3509472,34.1326304 C24.3379704,33.2788893 28.1048556,27.5332427 28.1048556,27.5332427 C28.3748449,27.0469485 29.0117784,26.5191118 29.543159,26.355156 Z" id="Path"></path>
    </g>
</svg>
