<?xml version="1.0" encoding="UTF-8"?>
<svg width="22px" height="62px" viewBox="0 0 22 62" version="1.1" xmlns="http://www.w3.org/2000/svg" xmlns:xlink="http://www.w3.org/1999/xlink">
    <!-- Generator: Sketch 57.1 (83088) - https://sketch.com -->
    <title>tt-sharp</title>
    <desc>Created with Sketch.</desc>
    <g id="tt-sharp" stroke="none" stroke-width="1" fill="none" fill-rule="evenodd">
        <path d="M14.8503415,-0.401162264 C15.3076232,-0.401162264 15.6783233,-0.025038454 15.6783233,0.431466654 L15.6780886,13.7949869 C18.072558,13.5732321 20.6214643,13.532107 21.1824034,13.9900744 C22.0404574,14.6906153 21.9073985,18.4018981 19.7702711,20.0280834 C18.6604903,20.872539 17.2423378,21.0929169 15.6792996,21.2415304 L15.6780886,34.4616536 C18.072558,34.2398988 20.6214643,34.1987737 21.1824034,34.6567411 C22.0404574,35.357282 21.9073985,39.0685647 19.7702711,40.6947501 C18.6604903,41.5392057 17.2423378,41.7595835 15.6792996,41.9081971 L15.6783233,57.6662088 C15.6783233,58.0906841 15.365177,58.4409717 14.9548287,58.4923504 L14.8503415,58.4988377 C14.3930598,58.4988377 14.0223597,58.1227139 14.0223597,57.6662088 L14.0228733,42.0584316 C13.0664493,42.1541896 12.0799822,42.2899428 11.0957022,42.5745764 C10.0974867,42.8632399 8.77718624,43.5379475 7.39881329,44.2965919 L7.39850526,60.7662088 C7.39850526,61.1906841 7.08535894,61.5409717 6.67501061,61.5923504 L6.57052345,61.5988377 C6.11324173,61.5988377 5.74254165,61.2227139 5.74254165,60.7662088 L5.74235207,45.2231039 C3.36311973,46.5610636 1.12299348,47.7916092 0.366817015,47.3758466 C-1.00372628,46.6222915 0.315423714,41.6736244 0.315423714,41.6736244 C0.549831555,40.6085018 1.30565486,39.3623682 2.01889049,38.9178675 L2.03429697,38.9063642 C2.18415451,38.7955353 3.42678057,37.8998135 5.74156096,36.9138303 L5.74235207,24.5564372 C3.36311973,25.8943969 1.12299348,27.1249425 0.366817015,26.70918 C-1.00372628,25.9556248 0.315423714,21.0069577 0.315423714,21.0069577 C0.549831555,19.9418352 1.30565486,18.6957015 2.01889049,18.2512008 L2.03429697,18.2396975 C2.18415451,18.1288686 3.42678057,17.2331469 5.74156096,16.2471636 L5.74254165,3.53146665 C5.74254165,3.10699134 6.05568796,2.7567038 6.4660363,2.7053251 L6.57052345,2.69883774 C7.02780518,2.69883774 7.39850526,3.07496155 7.39850526,3.53146665 L7.3975596,15.6004116 C8.77670004,15.1077954 10.4188786,14.6300331 12.3215744,14.2520654 C12.7966231,14.1576977 13.3812008,14.0643451 14.0222547,13.9798938 L14.0223597,0.431466654 C14.0223597,0.00699134298 14.335506,-0.3432962 14.7458544,-0.394674902 L14.8503415,-0.401162264 Z M11.0957022,21.9079097 C10.0974867,22.1965732 8.77718624,22.8712808 7.39881329,23.6299252 L7.3975596,36.2670782 C8.77670004,35.7744621 10.4188786,35.2966997 12.3215744,34.9187321 C12.7966231,34.8243644 13.3812008,34.7310118 14.0222547,34.6465604 L14.0228733,21.391765 C13.0664493,21.4875229 12.0799822,21.6232761 11.0957022,21.9079097 Z" id="Combined-Shape" fill="#000000"></path>
    </g>
</svg>