<?xml version="1.0" encoding="UTF-8"?>
<svg width="80px" height="164px" viewBox="0 0 80 164" version="1.1" xmlns="http://www.w3.org/2000/svg" xmlns:xlink="http://www.w3.org/1999/xlink">
    <!-- Generator: Sketch 57.1 (83088) - https://sketch.com -->
    <title>tt-stem-up-1flag</title>
    <desc>Created with Sketch.</desc>
    <g id="tt-stem-up-1flag" stroke="none" stroke-width="1" fill-rule="evenodd">
        <path d="M51.8,14.1875 C52.2891513,12.7827937 53.9080337,13.1458318 53.9891513,14.1875 C53.9935702,14.2442461 53.9977051,14.3383935 54.0015677,14.4679622 C58.2251122,15.5646982 72.1147461,19.9603952 72.1147461,30.5 C72.1147461,42.9300007 65.8408203,56.4243164 64.82583,56.4243164 C63.8108397,56.4243164 61.9511719,53.9206391 61.9511719,51.5214844 C61.9511719,49.1223296 60.6342773,49.8725586 64.82583,46.0782746 C69.0173827,42.2839907 70.6137353,39.1086294 67.9715358,32.7900431 C65.6422185,27.219687 56.2417488,24.4968326 54.0480547,23.9300775 L54.0482002,23.8935176 C54.0524343,40.2077556 53.9192381,71.4624031 53.9086941,73.9094913 L53.9080337,74.0621946 L51.9891513,78.1875 C51.9891513,78.1875 52.9750065,37.9069877 52.3938131,23.0505652 C52.2855918,22.9371181 52.1945798,22.816605 52.1267146,22.6969385 C52.1267146,22.6969385 51.1759662,21.3868286 50.9487404,18.8769356 C50.7215146,16.3670427 51.4900805,14.8924456 51.4900805,14.8924456 C51.5335937,14.7706451 51.6004894,14.6599545 51.6842394,14.5635994 C51.7165344,14.4416614 51.7549243,14.3169449 51.8,14.1875 Z" id="Combined-Shape" ></path>
    </g>
</svg>
