<?xml version="1.0" encoding="UTF-8"?>
<svg width="64px" height="135px" viewBox="0 0 64 135" version="1.1" xmlns="http://www.w3.org/2000/svg" xmlns:xlink="http://www.w3.org/1999/xlink">
    <!-- Generator: Sketch 57.1 (83088) - https://sketch.com -->
    <title>tt-g-clef</title>
    <desc>Created with Sketch.</desc>
    <g id="tt-g-clef" stroke="none" stroke-width="1" fill="none" fill-rule="evenodd">
        <path d="M40.2426017,130.847496 C37.054479,136.667101 32.1248315,133.229492 31,130.847496 C29.5260144,127.726114 35.6264939,132.634468 36.7583153,126.495701 C37.8901367,120.356934 26.7412109,11.7646484 26.7412109,11.7646484 C26.7412109,11.7646484 29.3009632,0.959029401 30.6567297,12.9169482 C36.0516586,60.5004531 41.5112305,128.531738 40.2426017,130.847496 Z" id="stem-2" fill="#000000"></path>
        <path d="M30.7772135,100.242187 C25.080652,99.0820312 21.0557574,87.1645209 27.1188322,81.8975786 C31,78.5260407 39.064918,78.9629854 44.9491723,81.8975786 C50.8334265,84.8321719 53.5731027,88.7092634 52.7488839,100.242187 C51.5065779,117.625219 35.7405502,121.279169 25.080652,115.348772 C14.3477047,109.377736 11.9263393,101.026228 14.4626116,87.5 C16.2595466,77.9167419 20.7692009,68.6584533 34.7366071,56.8475184 C48.3757395,45.3141741 55.3556449,42.3690879 58.9135045,33.688058 C61.5108051,27.3507521 61.0902396,21.8682806 57.4151786,17.5708705 C52.9184942,12.3127002 45.9478003,12.0273438 33.018198,14.1668527 C31.0920208,14.4855843 25.8429581,15.6378739 25.8429581,17.5708705 C25.8429581,18.7145168 25.8273365,20.7843983 26.5818318,21.4113738 C34.7366071,18.7145168 39.7310333,18.9160836 42.6082589,20.0647321 C49.7706473,22.9241071 51.117508,28.3855334 48.3757395,35.0753348 C45.4233335,42.279083 31.1496791,53.3425128 30.7772135,53.6334937 C18.9986342,62.8352576 8.90781422,69.3203467 4.89229911,78.5260407 C-2.05354668,94.4496094 7.53962054,113.412946 22.0245234,119.364955 C36.5094263,125.316964 52.7488839,123.542411 60.0550644,102.775207 C64.5303703,90.0545268 59.297727,80.9604639 49.1729911,75.2767857 C38.6252147,69.3556272 26.42107,72.211123 22.0245234,83.5686737 C18.3867523,92.9660881 22.0541537,100.898098 29.7695235,103.955684 C37.0942072,106.858442 46.6768529,104.187185 47.3649554,96.5859375 C47.6128921,93.8470595 45.9478003,91.0299599 41.8244553,91.0299599 C39.4545642,102.775207 36.5187064,101.411494 30.7772135,100.242187 Z" id="Path-3" fill="#000000" fill-rule="nonzero"></path>
    </g>
</svg>